<?xml version="1.0" encoding="iso-8859-1"?>
<!-- Generator: Adobe Illustrator 19.0.0, SVG Export Plug-In . SVG Version: 6.00 Build 0)  -->
<svg version="1.1" id="Layer_1" xmlns="http://www.w3.org/2000/svg" xmlns:xlink="http://www.w3.org/1999/xlink" x="0px" y="0px"
	 viewBox="0 0 512 512" style="enable-background:new 0 0 512 512;" xml:space="preserve">
<circle style="fill:#CFDBE6;" cx="256" cy="256" r="256"/>
<path style="fill:#B8C9D9;" d="M510.581,283.026L341.333,113.778L180.724,235.887L79.775,294.024l98.931,97.925l-30.451,22.65
	l97.713,97.187c3.329,0.128,6.67,0.214,10.031,0.214C388.256,512,497.078,411.705,510.581,283.026z"/>
<path style="fill:#324A5E;" d="M189.63,420.978h-26.548c-11.521,0-20.859-9.338-20.859-20.859V284.444h68.267v115.674
	C210.489,411.639,201.15,420.978,189.63,420.978z"/>
<rect x="284.444" y="113.778" style="fill:#FC6F58;" width="56.889" height="256"/>
<rect x="284.444" y="240.485" style="fill:#F1543F;" width="56.889" height="129.293"/>
<path style="fill:#324A5E;" d="M284.443,369.778c0,0-18.389-56.889-85.332-56.889h-71.109c-39.276,0-71.113-31.837-71.113-71.111
	l0,0c0-39.274,31.837-71.111,71.111-71.111h71.111c66.944,0,85.333-56.889,85.333-56.889L284.443,369.778z"/>
<path style="fill:#2B3B4E;" d="M56.922,240.485c-0.009,0.431-0.033,0.859-0.033,1.293l0,0c0,39.274,31.837,71.111,71.111,71.111
	h71.109c66.944,0,85.333,56.889,85.333,56.889l0.002-129.293H56.922z"/>
<path style="fill:#FC6F58;" d="M56.889,241.778L56.889,241.778c0,38.936,31.298,70.546,70.106,71.085V170.693
	C88.186,171.232,56.889,202.842,56.889,241.778z"/>
<path style="fill:#F1543F;" d="M56.922,240.485c-0.007,0.431-0.033,0.859-0.033,1.293l0,0c0,38.936,31.298,70.546,70.106,71.085
	v-72.378H56.922z"/>
<g>
	<path style="fill:#2B3B4E;" d="M398.222,250.397h-28.444c-4.761,0-8.62-3.858-8.62-8.62s3.858-8.62,8.62-8.62h28.444
		c4.761,0,8.62,3.858,8.62,8.62S402.984,250.397,398.222,250.397z"/>
	<path style="fill:#2B3B4E;" d="M369.785,207.731c-2.663,0-5.291-1.231-6.978-3.551c-2.8-3.848-1.948-9.24,1.903-12.04
		l18.963-13.791c3.848-2.8,9.238-1.95,12.04,1.903c2.8,3.848,1.948,9.24-1.903,12.04l-18.963,13.791
		C373.317,207.195,371.541,207.731,369.785,207.731z"/>
	<path style="fill:#2B3B4E;" d="M387.008,304.271c-1.61,0-3.239-0.452-4.689-1.395l-17.239-11.205
		c-3.991-2.594-5.125-7.933-2.531-11.924s7.937-5.125,11.924-2.531l17.239,11.205c3.991,2.594,5.125,7.933,2.531,11.924
		C392.592,302.887,389.829,304.271,387.008,304.271z"/>
</g>
<g>
</g>
<g>
</g>
<g>
</g>
<g>
</g>
<g>
</g>
<g>
</g>
<g>
</g>
<g>
</g>
<g>
</g>
<g>
</g>
<g>
</g>
<g>
</g>
<g>
</g>
<g>
</g>
<g>
</g>
</svg>
