<?xml version="1.0" encoding="iso-8859-1"?>
<!-- Generator: Adobe Illustrator 19.0.0, SVG Export Plug-In . SVG Version: 6.00 Build 0)  -->
<svg version="1.1" id="Layer_1" xmlns="http://www.w3.org/2000/svg" xmlns:xlink="http://www.w3.org/1999/xlink" x="0px" y="0px"
	 viewBox="0 0 512 512" style="enable-background:new 0 0 512 512;" xml:space="preserve">
<circle style="fill:#FF7069;" cx="256" cy="256" r="256"/>
<path style="fill:#E4E7ED;" d="M208.809,445.312l-24.051-129.184l-64.137,23.322l46.463,119.527
	C171.274,469.546,211.906,459.707,208.809,445.312z"/>
<polygon style="fill:#C6CBD6;" points="186.215,324.327 184.757,315.946 120.438,339.268 124.447,349.29 "/>
<path style="fill:#E4E7ED;" d="M227.576,283.695l196.054,12.208L329.794,58.124L195.143,201.338
	c12.026,30.611,20.407,51.747,32.615,82.175L227.576,283.695z"/>
<polygon style="fill:#C6CBD6;" points="227.576,283.695 423.63,295.903 415.248,274.585 223.932,274.585 "/>
<g>
	<path style="fill:#6C7678;" d="M198.058,203.16c-2.186-5.466-7.47-8.746-11.661-6.924L73.976,241.059
		c-4.373,1.64-6.013,7.653-3.826,13.119l16.399,41.543l16.399,41.361c2.186,5.466,7.47,8.746,11.661,6.924l112.421-44.823
		c4.373-1.64,6.013-7.653,3.826-13.119l-16.399-41.361L198.058,203.16z"/>
	<path style="fill:#6C7678;" d="M434.198,290.073c2.004,5.102,0.182,10.75-4.373,12.572l0,0c-4.373,1.822-9.657-0.911-11.661-6.195
		L325.238,61.404c-2.004-5.102-0.182-10.75,4.373-12.572l0,0c4.373-1.822,9.657,1.093,11.661,6.195L434.198,290.073z"/>
</g>
<path style="fill:#E4E7ED;" d="M98.938,327.243l-25.873-65.23C26.42,274.403,46.827,348.743,98.938,327.243z"/>
<path style="fill:#FFE356;" d="M435.838,148.68l-33.89,13.301c-2.004,0.729-2.733,3.644-1.64,6.377
	c1.093,2.733,3.644,4.373,5.648,3.644l33.89-13.301c2.004-0.729,2.733-3.644,1.64-6.377
	C440.393,149.591,437.842,147.952,435.838,148.68z"/>
<path style="fill:#6C7678;" d="M166.172,456.974l42.636-10.932c6.195-1.64,9.11,10.021,2.915,11.661L169.27,468.27
	c-5.831,1.458-8.928-9.657-3.28-11.115L166.172,456.974z"/>
<g>
	<path style="fill:#FFE356;" d="M401.583,82.54l-21.865,29.153c-1.275,1.64-0.364,4.555,2.004,6.377
		c2.369,1.822,5.284,1.822,6.559,0.182l21.865-29.153c1.275-1.64,0.364-4.555-2.004-6.377C405.774,80.9,402.858,80.9,401.583,82.54z
		"/>
	<path style="fill:#FFE356;" d="M458.978,229.762l-35.712-6.742c-2.004-0.364-3.28-3.098-2.733-6.013
		c0.547-2.915,2.733-4.92,4.737-4.555l35.712,6.742c2.004,0.364,3.28,3.098,2.733,6.013
		C463.169,228.122,460.982,230.127,458.978,229.762z"/>
</g>
<path style="fill:#E4E7ED;" d="M90.374,245.25c-1.458,0.547-3.28-0.182-3.826-1.64c-0.547-1.458,0.182-3.28,1.64-3.826l76.891-29.7
	c1.458-0.547,3.28,0.182,3.826,1.64c0.547,1.458-0.182,3.28-1.64,3.826L90.374,245.25z"/>
<g>
</g>
<g>
</g>
<g>
</g>
<g>
</g>
<g>
</g>
<g>
</g>
<g>
</g>
<g>
</g>
<g>
</g>
<g>
</g>
<g>
</g>
<g>
</g>
<g>
</g>
<g>
</g>
<g>
</g>
</svg>
